<svg width="407" height="90" viewBox="0 0 407 90" fill="none" xmlns="http://www.w3.org/2000/svg">
<path d="M12.0283 89.2268C8.12149 89.2268 5.1914 87.9496 3.23801 85.3951C1.35975 82.8407 0.42062 79.3847 0.42062 75.0271C0.42062 71.2706 1.05923 66.8379 2.33645 61.729C3.61366 56.6202 5.3041 51.2859 7.40775 45.7263C9.5114 40.0915 11.8404 34.607 14.3949 29.2727C17.0244 23.9384 19.654 19.1301 22.2836 14.8477C24.9131 10.4901 27.3924 7.03409 29.7215 4.47965C32.0505 1.85009 33.9664 0.535302 35.469 0.535302C36.7462 0.535302 37.6478 1.32417 38.1737 2.90191C38.7747 4.47965 39.0752 6.05739 39.0752 7.63513C39.0752 9.73878 38.6244 12.2932 37.7229 15.2984C36.8213 18.3037 35.5441 21.5343 33.8912 24.9903C32.2384 28.3711 30.3225 31.7144 28.1438 35.0202C25.965 38.3259 23.5984 41.3687 21.0439 44.1485C18.5646 46.8532 16.0102 48.9944 13.3806 50.5722C12.9298 51.3986 12.2537 53.1266 11.3521 55.7562C10.5257 58.3106 9.73679 61.2783 8.98549 64.6591C8.30932 67.9649 7.97123 71.1955 7.97123 74.351C7.97123 77.4313 8.42201 79.9482 9.32358 81.9016C10.3003 83.9301 11.9156 84.9443 14.1695 84.9443C16.3483 84.9443 18.6022 84.0428 20.9312 82.2397C23.2603 80.5117 25.1385 78.2577 26.566 75.4779C23.7862 74.0504 21.7201 71.9843 20.3678 69.2797C19.0154 66.4998 18.3392 63.72 18.3392 60.9402C18.3392 57.3339 19.2784 54.4414 21.1566 52.2626C23.0349 50.0838 25.2512 48.9944 27.8057 48.9944C29.9844 48.9944 31.7124 49.896 32.9897 51.6991C34.2669 53.4271 34.9055 55.9816 34.9055 59.3624C34.9055 61.8417 34.5674 64.3962 33.8912 67.0257C33.2151 69.6553 32.2384 72.2097 30.9611 74.689C31.4119 74.7642 31.8627 74.8393 32.3135 74.9144C32.8394 74.9896 33.3653 75.0271 33.8912 75.0271C36.5959 75.0271 38.8498 74.3885 40.653 73.1113C42.4561 71.759 43.9587 70.1437 45.1608 68.2654C46.438 66.312 47.4898 64.4713 48.3163 62.7433L49.6686 64.2083C47.565 69.3923 45.0481 72.8483 42.118 74.5763C39.2631 76.2292 36.4081 77.0557 33.5531 77.0557C32.9521 77.0557 32.3511 77.0181 31.75 76.943C31.149 76.8678 30.5479 76.7927 29.9469 76.7176C27.9184 80.1736 25.4015 83.1037 22.3963 85.5078C19.4662 87.9871 16.0102 89.2268 12.0283 89.2268ZM27.693 73.224C28.5194 71.496 29.158 69.6929 29.6088 67.8146C30.0596 65.8612 30.285 63.8703 30.285 61.8417C30.285 59.2122 29.9093 57.1461 29.158 55.6435C28.4818 54.1409 27.6178 53.3896 26.566 53.3896C25.4391 53.3896 24.4248 54.1784 23.5232 55.7562C22.6968 57.2588 22.2836 59.1746 22.2836 61.5037C22.2836 63.5322 22.6968 65.6734 23.5232 67.9273C24.3497 70.1812 25.7396 71.9468 27.693 73.224ZM14.6203 46.177C16.7239 44.5242 18.7524 42.4205 20.7058 39.8661C22.7344 37.3117 24.6126 34.607 26.3406 31.752C28.0686 28.8219 29.6088 25.967 30.9611 23.1871C32.3135 20.4073 33.3653 17.8904 34.1166 15.6365C34.8679 13.3826 35.2436 11.6922 35.2436 10.5652C35.2436 10.1896 35.206 9.96417 35.1309 9.88904C35.0558 9.73878 34.9431 9.66365 34.7928 9.66365C34.1918 9.66365 33.0272 10.753 31.2992 12.9318C29.6464 15.0355 27.7681 17.8904 25.6644 21.4967C23.6359 25.0278 21.6074 28.9722 19.5789 33.3297C17.5504 37.6122 15.8975 41.8946 14.6203 46.177ZM51.3089 86.2967C48.9798 86.2967 47.0264 85.5078 45.4487 83.9301C43.7958 82.4275 42.9694 80.0984 42.9694 76.943C42.9694 74.2383 43.5704 71.3457 44.7725 68.2654C45.9746 65.1099 47.6275 62.0296 49.7311 59.0243C51.8348 55.944 54.2014 53.1642 56.831 50.6849C59.5356 48.1304 62.353 46.1019 65.2831 44.5993C68.2883 43.0967 71.256 42.3454 74.1861 42.3454C77.1162 42.3454 79.5579 43.1343 81.5113 44.712C83.4647 46.2146 84.4414 48.2431 84.4414 50.7976C84.4414 52.6758 83.9155 53.953 82.8636 54.6292C81.887 55.3054 80.5722 55.6435 78.9193 55.6435C79.0696 55.0424 79.1823 54.4038 79.2574 53.7277C79.4076 52.9763 79.4828 52.3002 79.4828 51.6991C79.4828 49.9711 79.0696 48.5061 78.2431 47.304C77.4167 46.0268 75.9892 45.3882 73.9607 45.3882C71.857 45.3882 69.7158 46.1395 67.537 47.6421C65.3583 49.0696 63.2546 51.023 61.2261 53.5023C59.1976 55.9064 57.3944 58.536 55.8167 61.391C54.239 64.2459 52.9993 67.0633 52.0977 69.8431C51.1962 72.623 50.7454 75.1023 50.7454 77.281C50.7454 80.2111 51.7596 81.6762 53.7882 81.6762C55.5162 81.6762 57.3944 80.8873 59.423 79.3096C61.4515 77.6567 63.5176 75.5906 65.6212 73.1113C67.8 70.5569 69.8661 67.9273 71.8195 65.2226C73.7729 62.5179 75.5009 60.0386 77.0035 57.7847C77.304 57.3339 77.4918 57.1085 77.567 57.1085C78.0177 57.1837 78.5812 57.3339 79.2574 57.5593C80.0087 57.7847 80.6473 58.0852 81.1732 58.4609C81.6991 58.8365 81.9621 59.3249 81.9621 59.9259C81.9621 60.6021 81.624 61.5412 80.9478 62.7433C80.2716 63.8703 79.5203 65.185 78.6939 66.6877C77.8675 68.1903 77.1162 69.7304 76.44 71.3082C75.7638 72.8108 75.4257 74.2383 75.4257 75.5906C75.4257 76.7176 75.7263 77.8445 76.3273 78.9715C76.9283 80.0233 77.905 80.5492 79.2574 80.5492C81.2859 80.5492 83.953 79.0842 87.2588 76.1541C90.5645 73.1489 93.9078 68.6786 97.2887 62.7433L98.4156 63.8703C96.8379 67.9273 94.8094 71.496 92.3301 74.5763C89.8508 77.6567 87.1836 80.0609 84.3287 81.7889C81.5489 83.5169 78.8066 84.3809 76.1019 84.3809C73.3221 84.3809 71.256 83.5544 69.9036 81.9016C68.6264 80.2487 67.9878 78.4456 67.9878 76.4922C67.9878 76.0414 68.0254 75.553 68.1005 75.0271C68.1756 74.4261 68.2508 73.825 68.3259 73.224C65.0953 77.5816 62.1276 80.8497 59.423 83.0285C56.7934 85.2073 54.0887 86.2967 51.3089 86.2967ZM104.563 86.184C101.332 86.184 98.8529 85.2449 97.1249 83.3666C95.3969 81.4883 94.5329 78.7085 94.5329 75.0271C94.5329 71.7214 95.134 67.6643 96.3361 62.856C97.6133 57.9725 99.191 52.9763 101.069 47.8675C100.318 47.7172 99.6042 47.6045 98.9281 47.5294C98.2519 47.3791 97.6133 47.1913 97.0122 46.9659V44.9374C97.6133 45.0125 98.327 45.0877 99.1535 45.1628C99.9799 45.2379 100.919 45.313 101.971 45.3882C103.549 41.3311 105.239 37.4243 107.042 33.6678C108.845 29.8362 110.611 26.4553 112.339 23.5252C114.142 20.52 115.832 18.1534 117.41 16.4254C119.063 14.6223 120.453 13.7207 121.58 13.7207C122.181 13.7207 122.707 13.9461 123.158 14.3969C123.684 14.7725 123.947 15.3736 123.947 16.2C123.947 17.4772 123.158 19.5809 121.58 22.511C120.002 25.3659 118.049 28.7843 115.72 32.7663C113.391 36.7482 111.137 41.0682 108.958 45.7263C109.634 45.7263 110.31 45.7263 110.987 45.7263C111.738 45.7263 112.452 45.7263 113.128 45.7263C115.607 45.7263 118.199 45.6887 120.904 45.6136C123.684 45.5384 126.463 45.3506 129.243 45.0501V47.0786C125.111 47.5294 121.392 47.8675 118.086 48.0929C114.856 48.3183 111.963 48.431 109.409 48.431C109.108 48.431 108.808 48.431 108.507 48.431C108.282 48.431 108.019 48.431 107.718 48.431C105.99 52.4129 104.525 56.5075 103.323 60.7148C102.121 64.9221 101.52 69.0167 101.52 72.9986C101.52 76.2292 102.008 78.5583 102.985 79.9857C103.962 81.3381 105.577 82.0143 107.831 82.0143C111.738 82.0143 115.569 80.2863 119.326 76.8303C123.083 73.3743 126.388 68.6786 129.243 62.7433L130.708 63.8703C128.905 68.0776 126.614 71.8717 123.834 75.2525C121.129 78.6334 118.124 81.3005 114.818 83.2539C111.512 85.2073 108.094 86.184 104.563 86.184ZM135.234 83.9301C132.304 83.9301 130.125 82.991 128.697 81.1127C127.27 79.3096 126.556 77.0932 126.556 74.4637C126.556 72.7357 126.857 70.5569 127.458 67.9273C128.134 65.2977 128.998 62.5555 130.05 59.7005C131.101 56.7704 132.304 54.0282 133.656 51.4737C135.083 48.9193 136.586 46.8532 138.164 45.2755C139.741 43.6226 141.282 42.7962 142.784 42.7962C143.46 42.7962 144.024 43.0216 144.475 43.4723C145.001 43.848 145.264 44.449 145.264 45.2755C145.264 46.177 144.663 47.6421 143.46 49.6706C142.333 51.6991 140.981 54.0282 139.403 56.6577C137.826 59.2873 136.436 62.0671 135.234 64.9972C134.107 67.8522 133.543 70.5944 133.543 73.224C133.543 75.9287 133.994 77.7318 134.896 78.6334C135.797 79.535 137.187 79.9857 139.065 79.9857C141.62 79.9857 144.324 78.7085 147.179 76.1541C150.109 73.5997 153.19 69.1294 156.42 62.7433L157.435 63.8703C155.256 70.3315 152.1 75.2901 147.968 78.7461C143.911 82.2021 139.666 83.9301 135.234 83.9301ZM148.757 32.3155C147.555 32.3155 146.466 32.015 145.489 31.4139C144.587 30.8129 144.137 29.8737 144.137 28.5965C144.137 27.0188 145.038 25.6664 146.841 24.5395C148.72 23.3374 150.56 22.7363 152.363 22.7363C153.49 22.7363 154.392 22.9993 155.068 23.5252C155.744 24.0511 156.082 24.9527 156.082 26.2299C156.082 27.6574 155.293 29.0473 153.716 30.3997C152.213 31.6769 150.56 32.3155 148.757 32.3155ZM187.774 85.2824C185.67 85.2824 183.867 84.5687 182.364 83.1412C180.862 81.7137 179.66 79.9106 178.758 77.7318C177.932 75.553 177.293 73.3367 176.842 71.0828C176.466 68.7537 176.279 66.7252 176.279 64.9972C177.105 64.9972 178.307 64.8094 179.885 64.4337C181.463 63.983 183.078 63.3443 184.731 62.5179C186.384 61.6163 187.774 60.4894 188.901 59.137C190.103 57.7096 190.704 56.0567 190.704 54.1784C190.704 52.6007 190.14 51.361 189.013 50.4595C187.886 49.5579 186.572 49.1071 185.069 49.1071C182.74 49.1071 180.561 49.9336 178.533 51.5864C176.504 53.1642 174.663 55.2678 173.01 57.8974C171.433 60.4518 170.005 63.1941 168.728 66.1242C167.451 69.0543 166.361 71.8341 165.46 74.4637C164.558 77.0932 163.807 79.272 163.206 81C162.755 82.3523 162.117 83.2539 161.29 83.7047C160.464 84.2306 159.6 84.4936 158.698 84.4936C157.421 84.4936 156.482 83.9677 155.881 82.9158C155.355 81.864 155.017 80.5492 154.866 78.9715C154.791 77.3186 154.754 75.6282 154.754 73.9002C154.754 69.9934 155.392 65.4856 156.67 60.3767C157.947 55.2678 159.637 49.9711 161.741 44.4866C163.92 38.927 166.286 33.5551 168.841 28.3711C171.395 23.1871 173.95 18.4915 176.504 14.2842C179.058 10.0769 181.425 6.73357 183.604 4.25426C185.783 1.77495 187.548 0.535302 188.901 0.535302C189.952 0.535302 190.779 1.24904 191.38 2.67652C192.056 4.104 192.394 5.832 192.394 7.86052C192.394 10.415 191.831 13.3075 190.704 16.5381C189.577 19.6936 187.961 22.8866 185.858 26.1172C183.829 29.3478 181.388 32.3906 178.533 35.2456C175.753 38.1005 172.71 40.5423 169.404 42.5708C166.925 48.6563 165.047 54.5917 163.769 60.3767C162.567 66.0866 161.966 70.895 161.966 74.8017C163.168 71.7965 164.596 68.4908 166.249 64.8845C167.977 61.2783 169.93 57.8223 172.109 54.5165C174.288 51.2108 176.654 48.5061 179.209 46.4024C181.763 44.2988 184.43 43.247 187.21 43.247C189.99 43.247 192.357 44.2237 194.31 46.177C196.263 48.1304 197.24 50.497 197.24 53.2769C197.24 55.681 196.601 57.7471 195.324 59.4751C194.122 61.128 192.62 62.4803 190.816 63.5322C189.088 64.5089 187.323 65.2602 185.52 65.7861C183.792 66.2369 182.364 66.4623 181.237 66.4623C181.312 67.0633 181.538 68.1527 181.913 69.7304C182.289 71.3082 182.815 72.961 183.491 74.689C184.242 76.417 185.144 77.9197 186.196 79.1969C187.248 80.399 188.525 81 190.028 81C192.206 81 194.272 80.1736 196.226 78.5207C198.179 76.8678 200.02 74.689 201.748 71.9843C203.551 69.2045 205.204 66.0866 206.706 62.6306L207.833 63.7576C206.782 67.439 205.166 70.9325 202.988 74.2383C200.809 77.4689 198.367 80.0984 195.662 82.127C193.033 84.2306 190.403 85.2824 187.774 85.2824ZM171.32 38.063C174.776 35.2831 177.781 32.1277 180.336 28.5965C182.965 25.0654 184.994 21.6845 186.421 18.4539C187.849 15.1482 188.562 12.5562 188.562 10.6779C188.562 10.3023 188.525 10.0393 188.45 9.88904C188.45 9.73878 188.375 9.66365 188.224 9.66365C187.473 9.66365 186.158 10.9784 184.28 13.608C182.477 16.2376 180.411 19.7311 178.082 24.0887C175.753 28.3711 173.499 33.0292 171.32 38.063ZM216.656 87.311C213.05 87.311 210.045 86.1089 207.641 83.7047C205.236 81.3005 204.034 77.6943 204.034 72.8859C204.034 69.1294 204.748 65.4856 206.176 61.9544C207.678 58.3482 209.632 55.1176 212.036 52.2626C214.44 49.4077 217.107 47.1537 220.037 45.5009C222.967 43.7729 225.86 42.9089 228.715 42.9089C231.795 42.9089 233.899 43.8104 235.026 45.6136C236.153 47.4167 236.716 49.295 236.716 51.2483C236.716 53.4271 236.19 55.343 235.138 56.9958C234.162 58.6487 232.809 59.4751 231.081 59.4751C229.804 59.4751 228.715 58.9117 227.813 57.7847C228.94 57.1837 229.917 55.9816 230.743 54.1784C231.57 52.3002 231.983 50.5346 231.983 48.8817C231.983 47.9802 231.795 47.304 231.419 46.8532C231.119 46.3273 230.48 46.0643 229.504 46.0643C227.475 46.0643 225.371 46.9659 223.193 48.769C221.089 50.5722 219.098 52.9012 217.22 55.7562C215.417 58.6111 213.914 61.6163 212.712 64.7718C211.585 67.9273 211.021 70.895 211.021 73.6748C211.021 76.0038 211.585 78.145 212.712 80.0984C213.839 82.0518 216.018 83.0285 219.248 83.0285C222.253 83.0285 225.259 82.2021 228.264 80.5492C231.344 78.8963 234.199 76.5297 236.829 73.4494C239.458 70.369 241.562 66.7628 243.14 62.6306L244.605 63.7576C242.877 68.2654 240.51 72.3224 237.505 75.9287C234.5 79.4598 231.194 82.2397 227.588 84.2682C223.981 86.2967 220.338 87.311 216.656 87.311ZM253.197 85.9586C248.614 85.9586 245.158 84.6814 242.829 82.127C240.575 79.6477 239.448 76.5673 239.448 72.8859C239.448 69.505 240.275 65.9363 241.927 62.1798C243.655 58.4233 245.909 54.8922 248.689 51.5864C251.544 48.2807 254.662 45.6136 258.043 43.585C261.424 41.4814 264.767 40.4296 268.073 40.4296C269.801 40.4296 271.379 40.8803 272.806 41.7819C274.309 42.6835 275.06 44.5242 275.06 47.304C275.06 50.159 274.196 52.8637 272.468 55.4181C270.815 57.8974 268.599 60.1137 265.819 62.0671C263.114 64.0205 260.109 65.6358 256.803 66.913C253.573 68.1151 250.342 68.8664 247.111 69.167C246.961 69.9183 246.848 70.632 246.773 71.3082C246.698 71.9843 246.661 72.623 246.661 73.224C246.661 74.351 246.773 75.4779 246.999 76.6049C247.299 77.7318 247.788 78.7837 248.464 79.7603C249.14 80.6619 250.041 81.3757 251.168 81.9016C252.371 82.4275 253.836 82.6904 255.564 82.6904C258.794 82.6904 261.987 81.7889 265.143 79.9857C268.298 78.1075 271.228 75.6657 273.933 72.6605C276.638 69.6553 278.929 66.3496 280.807 62.7433L282.16 63.7576C280.131 68.2654 277.539 72.1722 274.384 75.4779C271.303 78.7837 267.923 81.3381 264.241 83.1412C260.635 85.0195 256.953 85.9586 253.197 85.9586ZM247.675 67.0257C249.703 66.3496 251.995 65.3729 254.549 64.0957C257.104 62.7433 259.545 61.1656 261.875 59.3624C264.279 57.5593 266.232 55.5683 267.735 53.3896C269.312 51.2108 270.101 48.9193 270.101 46.5151C270.101 45.6887 269.951 45.0501 269.651 44.5993C269.35 44.1485 268.711 43.9231 267.735 43.9231C265.932 43.9231 264.016 44.6369 261.987 46.0643C259.959 47.4167 258.005 49.2198 256.127 51.4737C254.249 53.7277 252.558 56.207 251.056 58.9117C249.553 61.6163 248.426 64.321 247.675 67.0257ZM314.955 83.2539C312.325 83.2539 310.335 82.5777 308.982 81.2254C307.705 79.873 307.066 78.145 307.066 76.0414C307.066 74.4637 307.329 72.8108 307.855 71.0828C308.456 69.3548 309.02 67.5892 309.546 65.7861C310.072 63.9078 310.335 62.1047 310.335 60.3767C310.335 58.273 309.884 56.8456 308.982 56.0943C308.156 55.2678 307.104 54.8546 305.827 54.8546C303.498 54.8546 301.131 55.8313 298.727 57.7847C296.323 59.663 293.994 62.1047 291.74 65.1099C289.486 68.04 287.382 71.0828 285.429 74.2383C283.475 77.3937 281.747 80.2111 280.245 82.6904C279.043 82.6904 277.916 82.465 276.864 82.0143C275.737 81.6386 274.873 81.0376 274.272 80.2111C274.272 79.8355 274.685 78.671 275.512 76.7176C276.263 74.7642 277.164 72.36 278.216 69.505C279.268 66.6501 280.207 63.72 281.034 60.7148C281.86 57.7096 282.273 54.9673 282.273 52.488C282.724 51.9621 283.438 51.4362 284.415 50.9103C285.391 50.3843 286.405 50.1214 287.457 50.1214C289.486 50.1214 290.5 51.0981 290.5 53.0515C290.5 54.2536 290.162 56.2821 289.486 59.137C288.81 61.9169 287.946 64.847 286.894 67.9273C288.922 64.847 291.176 61.8042 293.656 58.799C296.21 55.7186 298.915 53.1642 301.77 51.1357C304.625 49.1071 307.48 48.0929 310.335 48.0929C313.265 48.0929 315.368 49.1447 316.645 51.2483C317.998 53.352 318.674 55.681 318.674 58.2355C318.674 60.5645 318.298 62.7433 317.547 64.7718C316.796 66.7252 316.007 68.641 315.18 70.5193C314.429 72.3224 314.053 74.1631 314.053 76.0414C314.053 77.6191 314.354 78.7461 314.955 79.4223C315.631 80.0233 316.458 80.3238 317.434 80.3238C319.313 80.3238 321.191 79.4598 323.069 77.7318C324.947 75.9287 326.751 73.6748 328.479 70.9701C330.282 68.2654 331.859 65.5231 333.212 62.7433L334.451 64.2083C332.874 67.8897 331.108 71.1579 329.155 74.0129C327.201 76.8678 325.06 79.1217 322.731 80.7746C320.402 82.4275 317.81 83.2539 314.955 83.2539ZM340.629 86.184C337.399 86.184 334.919 85.2449 333.191 83.3666C331.463 81.4883 330.599 78.7085 330.599 75.0271C330.599 71.7214 331.201 67.6643 332.403 62.856C333.68 57.9725 335.258 52.9763 337.136 47.8675C336.385 47.7172 335.671 47.6045 334.995 47.5294C334.318 47.3791 333.68 47.1913 333.079 46.9659V44.9374C333.68 45.0125 334.394 45.0877 335.22 45.1628C336.046 45.2379 336.986 45.313 338.037 45.3882C339.615 41.3311 341.306 37.4243 343.109 33.6678C344.912 29.8362 346.677 26.4553 348.405 23.5252C350.209 20.52 351.899 18.1534 353.477 16.4254C355.13 14.6223 356.519 13.7207 357.646 13.7207C358.247 13.7207 358.773 13.9461 359.224 14.3969C359.75 14.7725 360.013 15.3736 360.013 16.2C360.013 17.4772 359.224 19.5809 357.646 22.511C356.069 25.3659 354.115 28.7843 351.786 32.7663C349.457 36.7482 347.203 41.0682 345.025 45.7263C345.701 45.7263 346.377 45.7263 347.053 45.7263C347.804 45.7263 348.518 45.7263 349.194 45.7263C351.674 45.7263 354.266 45.6887 356.97 45.6136C359.75 45.5384 362.53 45.3506 365.31 45.0501V47.0786C361.178 47.5294 357.459 47.8675 354.153 48.0929C350.922 48.3183 348.03 48.431 345.475 48.431C345.175 48.431 344.874 48.431 344.574 48.431C344.348 48.431 344.085 48.431 343.785 48.431C342.057 52.4129 340.592 56.5075 339.39 60.7148C338.188 64.9221 337.587 69.0167 337.587 72.9986C337.587 76.2292 338.075 78.5583 339.052 79.9857C340.028 81.3381 341.644 82.0143 343.898 82.0143C347.804 82.0143 351.636 80.2863 355.393 76.8303C359.149 73.3743 362.455 68.6786 365.31 62.7433L366.775 63.8703C364.972 68.0776 362.68 71.8717 359.9 75.2525C357.196 78.6334 354.19 81.3005 350.885 83.2539C347.579 85.2073 344.161 86.184 340.629 86.184ZM382.683 83.9301C380.128 83.9301 378.1 83.2539 376.597 81.9016C375.169 80.5492 374.456 78.7837 374.456 76.6049C374.456 74.351 374.982 71.9843 376.033 69.505C377.085 67.0257 378.1 64.584 379.076 62.1798C380.128 59.7005 380.654 57.4842 380.654 55.5308C380.654 53.1266 379.94 51.361 378.513 50.2341C377.16 49.032 375.771 47.9426 374.343 46.9659C372.615 51.3986 370.812 55.6059 368.934 59.5878C367.055 63.5697 365.515 66.575 364.313 68.6035L363.299 66.6877C364.351 64.7343 365.703 61.8793 367.356 58.1228C369.084 54.3663 370.774 50.0838 372.427 45.2755C371.676 44.5242 371.3 43.6226 371.3 42.5708C371.3 40.3169 371.939 38.4762 373.216 37.0487C374.493 35.6212 375.432 34.9075 376.033 34.9075C376.86 34.9075 377.311 35.2831 377.386 36.0344C377.536 36.7106 377.611 37.2365 377.611 37.6122C377.611 37.9878 377.386 38.7391 376.935 39.8661C376.559 40.9179 376.372 41.5565 376.372 41.7819C376.372 42.8337 376.935 43.8104 378.062 44.712C379.264 45.5384 380.616 46.5151 382.119 47.6421C383.622 48.6939 384.936 50.0087 386.063 51.5864C387.265 53.089 387.867 55.0424 387.867 57.4466C387.867 59.7005 387.378 61.992 386.401 64.321C385.5 66.6501 384.561 68.8664 383.584 70.9701C382.683 73.0737 382.232 74.9144 382.232 76.4922C382.232 77.8445 382.57 78.7461 383.246 79.1969C383.922 79.6477 384.711 79.873 385.613 79.873C387.416 79.873 389.256 79.3096 391.135 78.1826C393.088 77.0557 394.966 75.6282 396.769 73.9002C398.573 72.1722 400.188 70.369 401.615 68.4908C403.043 66.5374 404.095 64.7343 404.771 63.0814L406.236 64.2083C404.808 67.3638 402.855 70.4817 400.376 73.5621C397.896 76.5673 395.117 79.0466 392.036 81C389.031 82.9534 385.913 83.9301 382.683 83.9301Z" fill="black"/>
</svg>
